<?xml version="1.0" encoding="utf-8"?>
<!-- Generator: Adobe Illustrator 17.0.0, SVG Export Plug-In . SVG Version: 6.00 Build 0)  -->
<!DOCTYPE svg PUBLIC "-//W3C//DTD SVG 1.1//EN" "http://www.w3.org/Graphics/SVG/1.1/DTD/svg11.dtd">
<svg version="1.1" id="Livello_1" xmlns="http://www.w3.org/2000/svg" xmlns:xlink="http://www.w3.org/1999/xlink" x="0px" y="0px"
	 width="329.641px" height="332.475px" viewBox="0 0 329.641 332.475" enable-background="new 0 0 329.641 332.475"
	 xml:space="preserve">
<g>
	<g>
		<defs>
			<rect id="SVGID_1_" y="0" width="329.641" height="332.475"/>
		</defs>
		<clipPath id="SVGID_2_">
			<use xlink:href="#SVGID_1_"  overflow="visible"/>
		</clipPath>
		<path clip-path="url(#SVGID_2_)" d="M320.063,152.688c-1.409,5.332-2.651,10.718-4.301,15.976
			c-1.034,3.308-7.443,5.146-10.405,3.231c-0.458-0.297-0.887-1.098-0.85-1.629c0.334-4.266,0.637-8.544,1.249-12.777
			c0.286-1.984,1.768-3.378,3.841-3.771c3.226-0.61,6.473-1.116,9.709-1.667C319.559,152.264,319.811,152.475,320.063,152.688"/>
	</g>
	<g>
		<defs>
			<rect id="SVGID_3_" y="0" width="329.641" height="332.475"/>
		</defs>
		<clipPath id="SVGID_4_">
			<use xlink:href="#SVGID_3_"  overflow="visible"/>
		</clipPath>
		<path clip-path="url(#SVGID_4_)" d="M271.465,75.442c1.441,1.689,2.888,3.377,4.334,5.068c-1.901,1.981-3.553,4.354-5.804,5.781
			c-1.124,0.711-3.668,0.22-5.005-0.623c-4.453-2.809-8.646-6.023-13.353-9.379c3.671-2.86,6.877-5.367,10.873-6.157
			c1.405-0.277,3.267,0.74,4.65,1.6C268.752,72.717,270.044,74.183,271.465,75.442"/>
	</g>
	<g>
		<defs>
			<rect id="SVGID_5_" y="0" width="329.641" height="332.475"/>
		</defs>
		<clipPath id="SVGID_6_">
			<use xlink:href="#SVGID_5_"  overflow="visible"/>
		</clipPath>
		<path clip-path="url(#SVGID_6_)" d="M60.158,254.618l0.118,0.172c0.929,1.426,1.858,2.851,3.07,4.714
			c-1.517,1.52-3.045,3.322-4.851,4.783c-2.145,1.733-4.462,0.925-6.419-0.454c-4.247-2.989-8.375-6.146-13.257-9.752
			c3.898-2.072,7.073-4.143,10.541-5.408c1.402-0.516,3.664,0.37,5.145,1.263C56.582,251.18,58.293,253.027,60.158,254.618"/>
	</g>
	<g>
		<defs>
			<rect id="SVGID_7_" y="0" width="329.641" height="332.475"/>
		</defs>
		<clipPath id="SVGID_8_">
			<use xlink:href="#SVGID_7_"  overflow="visible"/>
		</clipPath>
		<path clip-path="url(#SVGID_8_)" d="M44.285,232.78c0.667,1.25,1.331,2.497,1.998,3.745c0.545,1.19,1.086,2.377,1.618,3.535
			c-0.086,0.196-0.112,0.383-0.22,0.482c-5.803,5.569-7.826,5.613-13.642,0.209c-1.447-1.346-2.809-2.791-4.132-4.262
			c-1.488-1.653-2.887-3.383-4.769-5.605c3.878-1.303,7.359-2.811,10.993-3.524c1.388-0.27,3.255,1.102,4.678,2.063
			C42.126,230.31,43.14,231.644,44.285,232.78"/>
	</g>
	<g>
		<defs>
			<rect id="SVGID_9_" y="0" width="329.641" height="332.475"/>
		</defs>
		<clipPath id="SVGID_10_">
			<use xlink:href="#SVGID_9_"  overflow="visible"/>
		</clipPath>
		<path clip-path="url(#SVGID_10_)" d="M34.297,211.885c0.156,0.729,0.313,1.454,0.467,2.182c0.058,0.154,0.143,0.307,0.163,0.47
			c0.255,1.993,2.625,4.066-0.836,5.806c-4.727,2.379-6.563,2.634-9.195-0.66c-3.385-4.239-6.403-8.772-9.576-13.182
			c0.126-0.352,0.253-0.704,0.378-1.058c3.835-0.537,7.665-1.378,11.505-1.441c1.285-0.019,2.779,1.793,3.859,3.042
			C32.321,208.501,33.233,210.258,34.297,211.885"/>
	</g>
	<g>
		<defs>
			<rect id="SVGID_11_" y="0" width="329.641" height="332.475"/>
		</defs>
		<clipPath id="SVGID_12_">
			<use xlink:href="#SVGID_11_"  overflow="visible"/>
		</clipPath>
		<path clip-path="url(#SVGID_12_)" d="M267.868,256.425c1.132-1.24,2.26-2.484,3.389-3.726c0.109-0.121,0.205-0.263,0.335-0.365
			c6.72-5.285,7.471-5.318,14.728-0.576c1.1,0.718,2.181,1.465,3.912,2.632c-5.059,3.581-9.748,7-14.546,10.25
			c-1.665,1.129-3.559,0.788-5.05-0.545c-1.637-1.464-3.131-3.098-4.622-4.594C266.776,258.242,267.322,257.332,267.868,256.425"/>
	</g>
	<g>
		<defs>
			<rect id="SVGID_13_" y="0" width="329.641" height="332.475"/>
		</defs>
		<clipPath id="SVGID_14_">
			<use xlink:href="#SVGID_13_"  overflow="visible"/>
		</clipPath>
		<path clip-path="url(#SVGID_14_)" d="M207.602,295.252c0.942-0.267,1.885-0.534,2.826-0.804c0.407-0.069,0.822-0.108,1.222-0.212
			c7.586-1.996,9.807-1.04,13.52,5.911c0.725,1.354,1.291,2.793,2.108,4.58c-4.811,0.617-9.205,1.277-13.618,1.728
			c-6.523,0.671-8.011-0.458-9.363-6.809c-0.172-0.797-0.222-1.619-0.336-2.508C205.211,296.49,206.404,295.874,207.602,295.252"/>
	</g>
	<g>
		<defs>
			<rect id="SVGID_15_" y="0" width="329.641" height="332.475"/>
		</defs>
		<clipPath id="SVGID_16_">
			<use xlink:href="#SVGID_15_"  overflow="visible"/>
		</clipPath>
		<path clip-path="url(#SVGID_16_)" d="M282.75,236.809c0.761-1.17,1.526-2.34,2.287-3.509c1.322-1.455,2.621-2.925,3.973-4.349
			c1.555-1.631,3.419-2.265,5.615-1.478c3.065,1.099,6.119,2.227,10.026,3.651c-4.619,4.578-8.614,8.686-12.783,12.607
			c-1.993,1.874-4.232,1.245-6.352-0.134C281.658,241.093,281.558,240.911,282.75,236.809"/>
	</g>
	<g>
		<defs>
			<rect id="SVGID_17_" y="0" width="329.641" height="332.475"/>
		</defs>
		<clipPath id="SVGID_18_">
			<use xlink:href="#SVGID_17_"  overflow="visible"/>
		</clipPath>
		<path clip-path="url(#SVGID_18_)" d="M10.239,179.35c4.133,0,7.932-0.331,11.619,0.175c1.343,0.184,2.962,2.154,3.499,3.649
			c1.407,3.929,2.289,8.048,3.521,12.621c-2.757,0.665-5.174,1.614-7.613,1.685c-1.243,0.032-2.876-1.258-3.737-2.398
			C14.07,190.485,12.032,185.176,10.239,179.35"/>
	</g>
	<g>
		<defs>
			<rect id="SVGID_19_" y="0" width="329.641" height="332.475"/>
		</defs>
		<clipPath id="SVGID_20_">
			<use xlink:href="#SVGID_19_"  overflow="visible"/>
		</clipPath>
		<path clip-path="url(#SVGID_20_)" d="M54.361,79.462c0.707-0.78,1.413-1.563,2.122-2.345c1.89-1.837,3.73-3.73,5.687-5.495
			c2.225-2.017,4.707-2.248,7.297-0.661c2.585,1.583,5.157,3.191,8.416,5.211c-4.998,3.491-9.388,6.838-14.054,9.727
			c-3.233,2-5.221,1.213-8.265-2.423C54.623,82.351,53.082,81.298,54.361,79.462"/>
	</g>
	<g>
		<defs>
			<rect id="SVGID_21_" y="0" width="329.641" height="332.475"/>
		</defs>
		<clipPath id="SVGID_22_">
			<use xlink:href="#SVGID_21_"  overflow="visible"/>
		</clipPath>
		<path clip-path="url(#SVGID_22_)" d="M64.882,257.511c-1.094-1.283-2.185-2.566-3.278-3.848c-1.439-2.495-2.909-4.975-4.307-7.487
			c-1.014-1.83-0.93-3.644,0.437-5.283c2.095-2.519,4.226-5.007,6.945-8.217c2.703,5.864,5.206,10.996,7.417,16.253
			c0.853,2.03,0.291,4.135-1.752,5.428C68.567,255.476,66.707,256.465,64.882,257.511"/>
	</g>
	<g>
		<defs>
			<rect id="SVGID_23_" y="0" width="329.641" height="332.475"/>
		</defs>
		<clipPath id="SVGID_24_">
			<use xlink:href="#SVGID_23_"  overflow="visible"/>
		</clipPath>
		<path clip-path="url(#SVGID_24_)" d="M268.609,252.772c-1.482,1.584-2.965,3.164-4.447,4.748
			c-0.084-0.009-0.175,0.003-0.245-0.031c-9.211-4.452-7.97-6.011-4.939-12.79c1.703-3.814,3.675-7.508,5.866-11.948
			c2.72,3.389,5.134,6.163,7.273,9.132c1.479,2.043,0.414,4.112-0.665,6.02C270.524,249.538,269.56,251.15,268.609,252.772"/>
	</g>
	<g>
		<defs>
			<rect id="SVGID_25_" y="0" width="329.641" height="332.475"/>
		</defs>
		<clipPath id="SVGID_26_">
			<use xlink:href="#SVGID_25_"  overflow="visible"/>
		</clipPath>
		<path clip-path="url(#SVGID_26_)" d="M118.823,294.4c0.352,0.049,0.702,0.092,1.053,0.142c1.754,0.845,3.509,1.684,5.313,2.549
			c0.02,0.081,0.116,0.243,0.091,0.386c-1.374,8.789-2.521,9.716-11.305,8.805c-3.858-0.403-7.697-1.005-11.968-1.572
			c1.889-4.289,3.815-8.23,7.482-10.746c1.269-0.87,3.472-0.545,5.236-0.467C116.102,293.555,117.459,294.08,118.823,294.4"/>
	</g>
	<g>
		<defs>
			<rect id="SVGID_27_" y="0" width="329.641" height="332.475"/>
		</defs>
		<clipPath id="SVGID_28_">
			<use xlink:href="#SVGID_27_"  overflow="visible"/>
		</clipPath>
		<path clip-path="url(#SVGID_28_)" d="M249.288,273.369c1.891-1.261,3.742-2.583,5.677-3.775c6.765-4.177,7.097-3.809,12.774,0.788
			c1.459,1.181,2.633,2.714,4.198,4.362c-2.119,1.15-4.14,2.357-6.251,3.365c-2.901,1.391-5.832,2.752-8.83,3.903
			c-3.204,1.225-4.341,0.79-6.402-1.87c-0.355-0.456-0.716-0.916-1.01-1.41c-1.069-1.794-2.398-3.601-0.074-5.448
			C249.37,273.281,249.288,273.369,249.288,273.369"/>
	</g>
	<g>
		<defs>
			<rect id="SVGID_29_" y="0" width="329.641" height="332.475"/>
		</defs>
		<clipPath id="SVGID_30_">
			<use xlink:href="#SVGID_29_"  overflow="visible"/>
		</clipPath>
		<path clip-path="url(#SVGID_30_)" d="M276.139,77.886c-0.785-0.952-1.566-1.903-2.355-2.858c-1.258-2.212-2.529-4.421-3.776-6.637
			c-1.347-2.386-1.025-4.602,0.741-6.631c1.952-2.238,3.934-4.452,6.141-6.952c3.205,5.352,6.173,10.419,7.81,16.165
			c0.632,2.227-0.043,3.889-1.863,5.164c-1.081,0.753-2.239,1.4-3.296,2.182C278.225,79.29,277.146,79.046,276.139,77.886"/>
	</g>
	<g>
		<defs>
			<rect id="SVGID_31_" y="0" width="329.641" height="332.475"/>
		</defs>
		<clipPath id="SVGID_32_">
			<use xlink:href="#SVGID_31_"  overflow="visible"/>
		</clipPath>
		<path clip-path="url(#SVGID_32_)" d="M22.732,99.351c3.252,2.186,6.253,4.042,9.063,6.147c1.68,1.257,2.44,3.156,1.875,5.307
			c-1.065,4.045-2.204,8.069-3.368,12.299c-2.162-0.36-3.913-0.457-5.531-0.969c-2.368-0.745-4.038-2.367-4.21-4.986
			C20.185,111.312,21.251,105.642,22.732,99.351"/>
	</g>
	<g>
		<defs>
			<rect id="SVGID_33_" y="0" width="329.641" height="332.475"/>
		</defs>
		<clipPath id="SVGID_34_">
			<use xlink:href="#SVGID_33_"  overflow="visible"/>
		</clipPath>
		<path clip-path="url(#SVGID_34_)" d="M10.005,152.064c3.229,0.528,6.465,0.996,9.673,1.606c2.629,0.5,3.984,2.449,4.253,4.878
			c0.426,3.849,0.582,7.736,0.639,11.608c0.01,0.64-0.956,1.695-1.648,1.878c-4.671,1.212-7.641,0.072-9.381-4.412
			c-1.861-4.785-2.966-9.866-4.401-14.819C9.431,152.556,9.718,152.311,10.005,152.064"/>
	</g>
	<g>
		<defs>
			<rect id="SVGID_35_" y="0" width="329.641" height="332.475"/>
		</defs>
		<clipPath id="SVGID_36_">
			<use xlink:href="#SVGID_35_"  overflow="visible"/>
		</clipPath>
		<path clip-path="url(#SVGID_36_)" d="M78.677,272.315c0.928,1.02,1.86,2.033,2.82,3.083c-0.007,0.101,0.033,0.278-0.034,0.404
			c-4.205,7.783-5.373,8.2-13.283,4.48c-3.575-1.682-7.08-3.514-11.378-5.653c3.493-2.784,6.405-5.377,9.603-7.55
			c1.954-1.334,3.999-0.007,5.767,1.049c2.247,1.344,4.399,2.844,6.592,4.278L78.677,272.315z"/>
	</g>
	<g>
		<defs>
			<rect id="SVGID_37_" y="0" width="329.641" height="332.475"/>
		</defs>
		<clipPath id="SVGID_38_">
			<use xlink:href="#SVGID_37_"  overflow="visible"/>
		</clipPath>
		<path clip-path="url(#SVGID_38_)" d="M288.592,97.826c-0.656-1.302-1.311-2.605-1.962-3.907c-0.763-2.984-1.952-5.939-2.135-8.957
			c-0.116-1.91,6.12-7.047,9.838-8.883c1.527,5.738,3.144,11.327,4.413,16.995c0.242,1.096-0.627,2.674-1.411,3.704
			c-0.703,0.92-1.982,1.423-3.033,2.059C292.117,100.159,290.096,100.409,288.592,97.826"/>
	</g>
	<g>
		<defs>
			<rect id="SVGID_39_" y="0" width="329.641" height="332.475"/>
		</defs>
		<clipPath id="SVGID_40_">
			<use xlink:href="#SVGID_39_"  overflow="visible"/>
		</clipPath>
		<path clip-path="url(#SVGID_40_)" d="M56.229,74.358c-0.41,0.447-0.82,0.895-1.232,1.341c-0.313,0.257-0.6,0.557-0.943,0.757
			c-1.291,0.75-1.427,3.498-3.996,2.092c-4.279-2.338-6.076-4.542-5.38-7.375c1.439-5.854,4.644-10.87,7.911-16.517
			c2.504,3.134,4.821,5.896,6.978,8.78c1.557,2.083,0.493,4.092-0.578,6.014C58.072,71.089,57.149,72.722,56.229,74.358"/>
	</g>
	<g>
		<defs>
			<rect id="SVGID_41_" y="0" width="329.641" height="332.475"/>
		</defs>
		<clipPath id="SVGID_42_">
			<use xlink:href="#SVGID_41_"  overflow="visible"/>
		</clipPath>
		<path clip-path="url(#SVGID_42_)" d="M228.942,286.32c0.958-0.436,1.914-0.872,2.868-1.31c2.365-0.959,4.672-2.153,7.125-2.784
			c1.26-0.323,3.188-0.115,4.112,0.676c2.843,2.426,5.344,5.25,7.975,7.919c-0.088,0.368-0.181,0.732-0.274,1.097
			c-5.354,1.457-10.655,3.169-16.086,4.279c-3.631,0.746-4.607-0.088-6.197-3.435c-0.695-1.469-1.125-3.06-1.655-4.537
			C227.631,287.491,228.289,286.905,228.942,286.32"/>
	</g>
	<g>
		<defs>
			<rect id="SVGID_43_" y="0" width="329.641" height="332.475"/>
		</defs>
		<clipPath id="SVGID_44_">
			<use xlink:href="#SVGID_43_"  overflow="visible"/>
		</clipPath>
		<path clip-path="url(#SVGID_44_)" d="M97.023,284.477c0.522,0.278,1.045,0.555,1.566,0.833c1.255,0.881,2.509,1.759,4.116,2.89
			c-0.926,2.031-1.632,4.365-2.982,6.232c-0.752,1.038-2.718,2.028-3.893,1.797c-5.783-1.135-11.484-2.688-17.746-4.221
			c2.819-4.484,5.513-7.98,9.576-9.777c1.415-0.623,3.621,0.418,5.428,0.861C94.433,283.418,95.712,284.007,97.023,284.477"/>
	</g>
	<g>
		<defs>
			<rect id="SVGID_45_" y="0" width="329.641" height="332.475"/>
		</defs>
		<clipPath id="SVGID_46_">
			<use xlink:href="#SVGID_45_"  overflow="visible"/>
		</clipPath>
		<path clip-path="url(#SVGID_46_)" d="M41.596,95.65c-0.357,0.847-0.715,1.693-1.075,2.539c-1.193,2.026-2.715,1.917-4.682,1.036
			c-3.911-1.756-5.804-3.477-5.206-6.3c1.189-5.595,2.848-11.091,4.459-17.178c4.196,2.785,7.473,5.352,9.575,9.052
			c0.518,0.914,0.344,2.489-0.029,3.585C43.793,90.865,42.63,93.234,41.596,95.65"/>
	</g>
	<g>
		<defs>
			<rect id="SVGID_47_" y="0" width="329.641" height="332.475"/>
		</defs>
		<clipPath id="SVGID_48_">
			<use xlink:href="#SVGID_47_"  overflow="visible"/>
		</clipPath>
		<path clip-path="url(#SVGID_48_)" d="M41.486,100.313c1.644-2.442,3.207-4.943,4.949-7.313c3.781-5.136,5.196-5.52,11.092-3.224
			c1.972,0.769,3.912,1.624,6.704,2.786c-4.629,4.51-8.751,8.633-13.009,12.607c-1.49,1.393-3.482,1.329-5.054,0.126
			c-1.817-1.386-4.813-1.823-4.605-5.078L41.486,100.313z"/>
	</g>
	<g>
		<defs>
			<rect id="SVGID_49_" y="0" width="329.641" height="332.475"/>
		</defs>
		<clipPath id="SVGID_50_">
			<use xlink:href="#SVGID_49_"  overflow="visible"/>
		</clipPath>
		<path clip-path="url(#SVGID_50_)" d="M83.615,85.168h22.642v23.889c6.241-1.794,8.112-6.115,8.949-11.266h22.645
			c0.408,9.109-5.028,14.37-12.156,19.557c7.696,4.176,12.084,10.256,11.883,19.252h-22.241c-0.828-5.316-2.69-9.75-8.936-11.711
			v11.674H83.615V85.168z"/>
	</g>
	<g>
		<defs>
			<rect id="SVGID_51_" y="0" width="329.641" height="332.475"/>
		</defs>
		<clipPath id="SVGID_52_">
			<use xlink:href="#SVGID_51_"  overflow="visible"/>
		</clipPath>
		<path clip-path="url(#SVGID_52_)" d="M165.536,133.386c2.071-4.306,3.986-8.287,5.598-11.642
			c4.262,1.926,7.981,3.846,11.898,5.223c1.038,0.37,3.716-0.033,4.019-1.457c0.31-1.437-1.873-2.612-3.117-3.048
			c-3.435-1.2-7.162-1.604-10.54-2.927c-4.651-1.824-6.938-5.568-6.738-10.646c0.199-5.058,3.316-8.085,7.666-9.619
			c10.38-3.663,20.617-2.582,31.226,1.655c-1.783,3.638-3.423,6.977-5.072,10.341c-2.964-1.294-5.477-2.812-8.189-3.4
			c-1.443-0.314-4.523-0.141-4.869,1.556c-0.328,1.616,2.259,2.689,3.695,3.239c3.895,1.503,8.345,1.898,11.868,3.947
			c7.681,4.468,7.243,14.668-0.618,18.9c-2.444,1.314-5.385,2.003-8.178,2.341C184.398,139.037,174.946,137.726,165.536,133.386"/>
	</g>
	<g>
		<defs>
			<rect id="SVGID_53_" y="0" width="329.641" height="332.475"/>
		</defs>
		<clipPath id="SVGID_54_">
			<use xlink:href="#SVGID_53_"  overflow="visible"/>
		</clipPath>
		<path clip-path="url(#SVGID_54_)" d="M248.352,100.858c-1.924,3.906-3.525,7.163-5.182,10.524c-2.762-1.234-5.164-2.5-7.696-3.377
			c-2.127-0.735-4.722-1.002-5.189,1.928c-0.122,0.769,2.368,2.351,3.896,2.92c3.665,1.362,7.669,1.926,11.162,3.594
			c3.928,1.873,6.135,5.354,5.753,10.001c-0.4,4.844-3.002,8.261-7.414,9.933c-7.931,3-16.129,2.399-24.236,0.814
			c-3.686-0.719-7.229-2.122-11.333-3.365c2.205-4.603,4.122-8.595,5.774-12.037c4.027,1.882,7.592,3.817,11.366,5.154
			c1.198,0.421,4.123,0.325,4.47-1.206c0.369-1.629-2.303-2.7-3.76-3.252c-3.4-1.291-7.122-1.765-10.466-3.162
			c-4.339-1.81-6.242-5.539-6.142-10.199c0.093-4.473,2.65-7.409,6.466-9.191c7.648-3.565,15.667-3.189,23.682-1.655
			C242.282,98.815,244.96,99.854,248.352,100.858"/>
	</g>
	<g>
		<defs>
			<rect id="SVGID_55_" y="0" width="329.641" height="332.475"/>
		</defs>
		<clipPath id="SVGID_56_">
			<use xlink:href="#SVGID_55_"  overflow="visible"/>
		</clipPath>
		<path clip-path="url(#SVGID_56_)" d="M141.034,136.6V98.596c7.556,2.879,14.88,2.949,22.572,0.068V136.6H141.034z"/>
	</g>
	<g>
		<defs>
			<rect id="SVGID_57_" y="0" width="329.641" height="332.475"/>
		</defs>
		<clipPath id="SVGID_58_">
			<use xlink:href="#SVGID_57_"  overflow="visible"/>
		</clipPath>
		<path clip-path="url(#SVGID_58_)" d="M157.335,84.93c3.964,0.006,6.853,2.732,6.886,6.497c0.035,3.723-2.879,6.621-6.736,6.704
			c-3.966,0.087-7.232-2.997-7.164-6.761C150.389,87.728,153.448,84.92,157.335,84.93"/>
	</g>
	<g>
		<defs>
			<rect id="SVGID_59_" y="0" width="329.641" height="332.475"/>
		</defs>
		<clipPath id="SVGID_60_">
			<use xlink:href="#SVGID_59_"  overflow="visible"/>
		</clipPath>
		<path clip-path="url(#SVGID_60_)" d="M83.615,145.481h22.642v23.887c6.241-1.789,8.112-6.113,8.949-11.266h22.645
			c0.408,9.112-5.028,14.369-12.156,19.559c7.696,4.173,12.084,10.254,11.883,19.252h-22.241c-0.828-5.318-2.69-9.752-8.936-11.711
			v11.674H83.615V145.481z"/>
	</g>
	<g>
		<defs>
			<rect id="SVGID_61_" y="0" width="329.641" height="332.475"/>
		</defs>
		<clipPath id="SVGID_62_">
			<use xlink:href="#SVGID_61_"  overflow="visible"/>
		</clipPath>
		<path clip-path="url(#SVGID_62_)" d="M165.536,193.699c2.071-4.306,3.986-8.287,5.598-11.642
			c4.262,1.929,7.981,3.845,11.898,5.225c1.038,0.367,3.716-0.035,4.019-1.456c0.31-1.438-1.873-2.615-3.117-3.05
			c-3.435-1.2-7.162-1.603-10.54-2.928c-4.651-1.824-6.938-5.567-6.738-10.645c0.199-5.059,3.316-8.088,7.666-9.621
			c10.38-3.662,20.617-2.58,31.226,1.657c-1.783,3.637-3.423,6.975-5.072,10.34c-2.964-1.293-5.477-2.811-8.189-3.4
			c-1.443-0.314-4.523-0.139-4.869,1.559c-0.328,1.613,2.259,2.685,3.695,3.238c3.895,1.504,8.345,1.897,11.868,3.945
			c7.681,4.469,7.243,14.667-0.618,18.898c-2.444,1.317-5.385,2.006-8.178,2.344C184.398,199.349,174.946,198.037,165.536,193.699"
			/>
	</g>
	<g>
		<defs>
			<rect id="SVGID_63_" y="0" width="329.641" height="332.475"/>
		</defs>
		<clipPath id="SVGID_64_">
			<use xlink:href="#SVGID_63_"  overflow="visible"/>
		</clipPath>
		<path clip-path="url(#SVGID_64_)" d="M248.352,161.172c-1.924,3.903-3.525,7.161-5.182,10.523
			c-2.762-1.234-5.164-2.501-7.696-3.379c-2.127-0.734-4.722-0.998-5.189,1.929c-0.122,0.773,2.368,2.352,3.896,2.92
			c3.665,1.362,7.669,1.926,11.162,3.594c3.928,1.875,6.135,5.356,5.753,10.001c-0.4,4.848-3.002,8.264-7.414,9.935
			c-7.931,3-16.129,2.396-24.236,0.812c-3.686-0.716-7.229-2.121-11.333-3.364c2.205-4.603,4.122-8.596,5.774-12.035
			c4.027,1.883,7.592,3.817,11.366,5.153c1.198,0.423,4.123,0.327,4.47-1.207c0.369-1.625-2.303-2.698-3.76-3.25
			c-3.4-1.293-7.122-1.764-10.466-3.159c-4.339-1.814-6.242-5.542-6.142-10.204c0.093-4.47,2.65-7.409,6.466-9.188
			c7.648-3.568,15.667-3.19,23.682-1.655C242.282,159.126,244.96,160.165,248.352,161.172"/>
	</g>
	<g>
		<defs>
			<rect id="SVGID_65_" y="0" width="329.641" height="332.475"/>
		</defs>
		<clipPath id="SVGID_66_">
			<use xlink:href="#SVGID_65_"  overflow="visible"/>
		</clipPath>
		<path clip-path="url(#SVGID_66_)" d="M141.034,196.914v-38.005c7.556,2.881,14.88,2.947,22.572,0.069v37.936H141.034z"/>
	</g>
	<g>
		<defs>
			<rect id="SVGID_67_" y="0" width="329.641" height="332.475"/>
		</defs>
		<clipPath id="SVGID_68_">
			<use xlink:href="#SVGID_67_"  overflow="visible"/>
		</clipPath>
		<path clip-path="url(#SVGID_68_)" d="M157.335,145.244c3.964,0.006,6.853,2.73,6.886,6.494c0.035,3.726-2.879,6.625-6.736,6.706
			c-3.966,0.085-7.232-2.996-7.164-6.761C150.389,148.042,153.448,145.232,157.335,145.244"/>
	</g>
	<g>
		<defs>
			<rect id="SVGID_69_" y="0" width="329.641" height="332.475"/>
		</defs>
		<clipPath id="SVGID_70_">
			<use xlink:href="#SVGID_69_"  overflow="visible"/>
		</clipPath>
		<path clip-path="url(#SVGID_70_)" d="M249.371,273.282c-0.012,0.008-0.024,0.018-0.033,0.025c-0.019,0.018-0.03,0.041-0.049,0.063
			L249.371,273.282z"/>
	</g>
	<g>
		<defs>
			<rect id="SVGID_71_" y="0" width="329.641" height="332.475"/>
		</defs>
		<clipPath id="SVGID_72_">
			<use xlink:href="#SVGID_71_"  overflow="visible"/>
		</clipPath>
		<path clip-path="url(#SVGID_72_)" d="M299.128,206.203c-1.395,1.293-2.252,3.161-3.592,5.153
			c2.028-7.068,3.933-13.697,6.016-20.949c-0.245,2.164-0.411,3.692-0.614,5.504c2.225,0.56,4.281,1.412,6.36,1.488
			c1.445,0.049,3.541-0.536,4.287-1.59c3.485-4.923,5.393-10.619,7.557-16.817c-3.527,0-6.572,0.009-9.614,0
			c-3.075-0.008-4.945,1.596-5.878,4.407c-0.646,1.946-1.214,3.917-1.819,5.864c0.737-7.297,1.853-14.578,2.105-21.885
			c0.255-7.396-0.347-14.823-0.56-21.823c0.813,0.4,1.935,1.443,3.046,1.43c6.659-0.078,7.574-0.692,8.545-6.946
			c0.112-0.736,0.261-1.48,0.266-2.219c0.027-3.992,0.011-7.984,0.011-11.992c-10.85,2.26-11.702,3.153-12.892,13.442
			c-1.247-5.525-2.489-11.052-3.631-16.112c1.822-0.351,3.689-0.593,5.486-1.084c3.96-1.086,5.01-2.243,4.72-6.349
			c-0.373-5.257-1.198-10.482-1.857-15.943c-4.229,1.539-8.095,3.28-10.242,6.784c-1.258,2.052-0.971,5.052-1.273,6.97
			c-2.1-4.74-4.532-10.227-6.961-15.711c-0.656-1.301-1.31-2.605-1.962-3.907c-2.182-3.315-4.374-6.626-6.544-9.945
			c-1.328-2.024-2.632-4.057-3.946-6.087c-0.787-0.953-1.566-1.904-2.355-2.858c-3.307-3.528-6.613-7.057-9.923-10.586l-1.232,0.854
			c1.07,0.993,2.126,2.001,3.104,3.077c2.033,2.242,3.831,4.703,5.73,7.068c1.442,1.69,2.889,3.378,4.334,5.068
			c2.895,4.308,5.792,8.619,8.688,12.927c-0.205,0.138-0.409,0.273-0.615,0.41c-1.041-1.169-1.915-2.584-3.169-3.441
			c-1.347-0.918-3.204-2.07-4.567-1.79c-3.486,0.72-6.824,2.179-10.225,3.342c-0.07,0.304-0.141,0.608-0.213,0.914
			c3.908,3.998,7.767,8.046,11.747,11.971c1.768,1.745,3.912,1.635,5.924,0.343c1.757-1.128,3.413-2.408,5.368-3.8
			c2.17,5.288,4.3,10.472,6.427,15.652c-1.611-1.803-2.729-3.869-4.243-5.583c-0.975-1.102-2.57-2.417-3.831-2.36
			c-3.525,0.158-7.02,0.98-11.197,1.646c3.397,5.115,6.207,9.592,9.283,13.881c2.064,2.884,3.646,3.172,6.885,1.844
			c1.713-0.705,3.361-1.58,5.332-2.519c1.183,5.183,2.295,10.057,3.405,14.933c-1.012-1.098-1.482-2.321-1.924-3.551
			c-1.066-2.985-3.146-4.579-6.345-4.6c-2.935-0.019-5.876-0.004-8.81-0.004c-0.171,0.32-0.341,0.645-0.512,0.966
			c2.218,4.865,4.348,9.772,6.689,14.575c1.199,2.462,3.607,3.679,6.492,2.88c1.884-0.52,4.489-0.999,6.489-1.622v21.26
			c-2-3.184-0.588-6.382-1.066-9.532c-0.315-2.116-1.125-4.495-3.504-5.13c-3.521-0.941-7.247-1.444-11.518-2.268
			c1.44,5.871,2.452,10.973,3.974,15.929c0.493,1.602,1.973,3.671,3.393,4.036c2.569,0.652,5.411,0.183,8.283,0.183
			c-0.46,3.791-0.949,7.89-1.473,11.984c-0.135,1.044-0.412,2.067-0.62,3.101c-0.226-3.575,0.019-7.193-3.414-9.657
			c-2.978-2.137-6.353-2.907-10.648-3.649c0.624,6.048,1.076,11.698,1.844,17.311c0.337,2.469,2.137,3.863,4.738,3.907
			c1.855,0.031,3.709,0.007,6.056,0.007c-1.79,5.586-3.499,10.936-5.212,16.287c-0.08-1.83,0.591-3.496,0.662-5.182
			c0.061-1.559-0.028-3.525-0.903-4.647c-2.569-3.296-6.155-5.307-10.752-6.927c-0.53,6.064-1.128,11.72-1.475,17.39
			c-0.155,2.526,1.271,4.191,3.831,4.757c1.844,0.404,3.684,0.847,5.905,1.358c-2.63,5.121-5.221,10.156-7.806,15.192
			c-0.184-0.091-0.369-0.181-0.553-0.271c0.607-1.332,1.45-2.609,1.772-4.007c0.421-1.867,1.243-4.276,0.475-5.659
			c-2.041-3.667-5.391-6.282-9.292-8.658c-1.093,3.189-2.154,6.045-3.036,8.955c-0.694,2.287-1.319,4.622-1.701,6.976
			c-0.526,3.231,0.4,4.892,3.387,6.394c1.588,0.8,3.293,1.368,5.445,2.25c-3.783,4.638-7.419,9.101-11.057,13.56
			c-1.482,1.584-2.965,3.163-4.447,4.747c-3.846,3.867-7.689,7.735-11.54,11.602c-0.156-0.164-0.319-0.329-0.479-0.495
			c1.234-1.512,2.69-2.897,3.628-4.575c0.705-1.265,1.404-3.169,0.946-4.326c-1.409-3.542-3.38-6.857-5.499-10.964
			c-3.685,5.109-6.964,9.369-9.918,13.848c-1.953,2.969-1.634,4.502,0.641,7.145c1.221,1.422,2.526,2.775,3.956,4.341
			c-4.576,2.917-9.33,5.949-14.087,8.985c-0.125-0.188-0.252-0.372-0.378-0.563c1.55-1.183,3.111-2.347,4.645-3.549
			c1.828-1.435,2.965-3.295,2.263-5.623c-1.003-3.343-2.285-6.603-3.733-10.7c-4.51,4.491-8.488,8.323-12.313,12.305
			c-1.912,1.994-1.848,4.339-0.246,6.57c1.128,1.566,2.335,3.068,3.667,4.814c-5.95,2.427-11.742,4.788-17.538,7.148
			c2.082-1.648,4.384-2.766,6.604-4.027c1.975-1.122,3.472-2.756,3.16-5.197c-0.432-3.416-1.114-6.803-1.691-10.202
			c-0.29-0.168-0.576-0.339-0.864-0.508c-4.627,3.418-9.296,6.78-13.857,10.278c-1.953,1.501-2.233,3.608-1.177,5.812
			c0.83,1.728,1.782,3.402,2.873,5.462c-6.132,1.329-12.139,2.63-18.146,3.933c2.256-1.228,4.745-1.69,6.916-2.786
			c1.477-0.74,3.39-2.25,3.577-3.621c0.495-3.681,0.167-7.476,0.167-11.462c-5.717,1.57-10.754,3.758-15.332,6.949
			c-2.794,1.949-3.295,3.434-2.367,6.828c0.421,1.535,0.949,3.046,1.459,4.658c-10.01,0.985-19.786,1.029-29.642-0.034
			c0.647-1.978,1.259-3.684,1.763-5.421c0.587-2.006,0.183-3.831-1.5-5.146c-4.885-3.821-10.473-6.165-16.812-7.981
			c0,3.586-0.016,6.881,0.007,10.176c0.015,2.67,1.455,4.307,3.911,5.112c2.351,0.77,4.718,1.489,7.076,2.23
			c-0.044,0.177-0.087,0.35-0.129,0.527c-5.91-1.305-11.815-2.614-17.876-3.954c1.058-2.117,1.969-3.771,2.725-5.492
			c0.769-1.753,0.952-3.539-0.532-5.083c-4.276-4.459-9.397-7.702-15.329-10.789c-0.618,3.335-1.089,6.324-1.743,9.273
			c-0.575,2.576,0.486,4.386,2.469,5.739c2.023,1.382,4.161,2.595,6.249,3.883c-0.056,0.133-0.111,0.273-0.165,0.41
			c-5.413-2.244-10.823-4.488-16.265-6.746c1.457-2.031,2.747-3.747,3.942-5.523c1.176-1.754,1.399-3.681-0.11-5.267
			c-4.007-4.208-8.146-8.297-12.71-12.91c-1.454,3.717-2.582,6.542-3.666,9.387c-1.091,2.866-0.168,5.167,2.086,7.059
			c1.206,1.014,2.426,2.016,3.645,3.025c-0.111,0.152-0.224,0.306-0.336,0.462c-4.45-2.868-8.901-5.735-12.765-8.226
			c1.537-1.844,3.192-3.351,4.205-5.21c0.741-1.361,1.327-3.468,0.793-4.75c-2.344-5.608-6.463-10.034-10.672-14.833
			c-1.725,2.867-3.264,5.395-4.769,7.944c-1.59,2.697-1.23,5.226,0.799,7.531c1.53,1.738,3.128,3.414,4.694,5.119
			c-0.156,0.153-0.314,0.313-0.474,0.469c-4.493-4.353-8.988-8.713-13.485-13.068c-1.093-1.284-2.184-2.565-3.277-3.849
			c-3.991-4.733-7.985-9.471-12.105-14.354c1.849-0.689,3.036-1.043,4.143-1.561c4.12-1.93,5.451-3.655,4.626-7.388
			c-1.149-5.2-2.812-10.285-4.451-16.108c-2.939,2.4-5.302,4.293-7.624,6.238c-2.134,1.788-2.81,4.036-1.816,6.68
			c0.904,2.394,1.876,4.763,2.82,7.145c-0.145,0.064-0.288,0.138-0.434,0.204c-2.83-5.458-5.661-10.913-8.57-16.519
			c1.913-0.311,3.314-0.463,4.677-0.782c3.182-0.745,5.38-2.826,5.259-6.024c-0.2-5.453-0.968-10.891-1.57-17.04
			c-3.627,2.094-6.49,3.712-9.312,5.39c-1.721,1.025-2.536,2.619-2.344,4.606c0.22,2.258,0.568,4.504,0.859,6.753
			c-0.137,0.041-0.276,0.084-0.409,0.126c-1.673-5.384-3.348-10.767-5.108-16.432c5.632,1.858,10.62-0.182,11.408-5.012
			c0.841-5.133,0.709-10.429,1.039-16.321c-3.762,1.383-6.698,2.432-9.617,3.533c-2.458,0.928-3.604,2.781-3.611,5.373
			c-0.006,2.208-0.001,4.409-0.001,6.617c-0.165,0.011-0.331,0.026-0.497,0.039c-0.75-5.745-1.497-11.494-2.282-17.493
			c6.374,2.331,10.103,1.012,12.203-4.719c1.65-4.508,2.465-9.322,3.819-14.654c-3.803,0.603-6.709,1.087-9.622,1.525
			c-2.898,0.432-4.818,2.081-5.264,4.947c-0.302,1.949,1.055,3.907-0.945,5.869v4.42c0-0.002-0.356-0.007-0.539-0.012
			c0.187-1.466,0.539-2.937,0.539-4.408v-16.957c2,0.695,3.608,1.286,5.049,1.606c2.11,0.469,4.351,0.861,5.963-1.262
			c3.733-4.908,6.171-10.433,7.993-16.835c-3.559,0-6.751-0.061-9.962,0.021c-2.592,0.068-4.365,1.466-5.211,3.884
			c-0.942,2.681-1.729,5.417-2.585,8.13c-0.136-0.025-0.272-0.053-0.407-0.079c1.362-6.339,2.728-12.674,4.079-18.946
			c2.35,1.092,4.288,2.328,6.403,2.853c1.306,0.322,3.305,0.045,4.263-0.795c4.643-4.085,7.656-9.406,10.686-15.102
			c-3.16-0.609-5.996-1.124-8.823-1.704c-2.577-0.53-4.592,0.369-6.066,2.421c-1.433,1.998-2.715,4.107-4.062,6.166
			c-0.196-0.094-0.392-0.188-0.586-0.28c2.65-5.735,5.303-11.47,7.956-17.207l-0.08,0.098c3.346-7.532,7.769-14.404,12.875-20.852
			c0.707-0.779,1.413-1.563,2.121-2.344c3.178-3.841,6.369-7.696,9.594-11.59l-0.814-0.568c-3.011,3.132-6.022,6.264-9.033,9.399
			c-0.41,0.446-0.821,0.894-1.232,1.34c-0.195,0.444-0.333,0.931-0.598,1.329c-3.814,5.76-7.639,11.513-11.486,17.251
			c-0.348,0.519-0.875,0.917-1.317,1.372c-0.357,0.847-0.716,1.693-1.075,2.539c-0.251,0.692-0.485,1.39-0.76,2.072
			c-2.452,6.039-5.225,11.971-7.285,18.139c-2.189,6.541-3.705,13.306-5.624,20.379c0.211-3.845,0.31-7.614-3.204-9.564
			c-3.002-1.665-6.383-2.648-10.047-4.114c0,2.017-0.033,3.168,0.007,4.32c0.11,3.225,0.129,6.457,0.433,9.665
			c0.143,1.524,0.595,3.129,1.336,4.463c2.32,4.179,8.195,4.761,10.939,1.317c-0.256,3.684-0.609,7.47-0.771,11.272
			c-0.829,19.163,2.093,37.749,8.752,55.747c0.155,0.729,0.313,1.453,0.467,2.183c0.259,0.3,0.592,0.559,0.762,0.901
			c2.932,5.934,5.844,11.872,8.759,17.811c0.667,1.25,1.331,2.497,1.998,3.745c4.626,6.031,9.251,12.062,13.875,18.093l0.117,0.172
			c4.925,4.72,9.841,9.443,14.772,14.155c1.227,1.171,2.477,2.307,3.717,3.461l-0.087-0.09c6.114,4.055,12.23,8.105,18.346,12.16
			c0.522,0.278,1.044,0.556,1.566,0.834c4.186,1.94,8.362,3.907,12.567,5.811c2.532,1.144,5.11,2.192,7.667,3.279
			c0.352,0.049,0.701,0.093,1.053,0.142c7.029,1.866,14.059,3.737,20.968,5.573c-8.38,0.101-11.881,3.675-12.621,13.472
			c5.251-0.38,10.441-0.661,15.606-1.18c2.13-0.215,4.416,0.896,5.039-1.649c0.688-2.801,1.514-4.16-0.569-6.16h32.832
			c-2.705,2-1.561,7.817,2.525,9.016c5.707,1.675,11.585,0.55,18.257,0.402c-1.56-3.688-2.629-7.5-4.365-10.508
			c-2.14-3.713-6.17-3.09-9.678-3.148c6.617-1.643,13.173-3.372,19.731-5c0.941-0.268,1.885-0.59,2.825-0.859
			c6.174-2.708,12.345-5.443,18.516-8.152c0.958-0.44,1.914-0.888,2.868-1.327c5.842-3.898,11.683-7.802,17.526-11.706
			c0.23-0.294,0.444-0.609,0.715-0.859c5.478-5.022,10.962-10.04,16.456-15.043c0.41-0.375,0.905-0.66,1.36-0.987
			c1.132-1.24,2.26-2.482,3.39-3.724c3.828-5.298,7.66-10.594,11.491-15.892c0.761-1.171,1.528-2.34,2.288-3.51
			c2.756-5.556,5.509-11.105,8.292-16.717c0,0.808-0.236,1.622,0.04,2.184c1.443,2.925,8.011,4.222,10.323,1.91
			c4.234-4.235,7.067-9.449,10.132-15.078c-3.62-0.652-6.841-1.553-10.092-1.665C302.198,203.881,300.352,205.066,299.128,206.203"
			/>
	</g>
	<g>
		<defs>
			<rect id="SVGID_73_" y="0" width="329.641" height="332.475"/>
		</defs>
		<clipPath id="SVGID_74_">
			<use xlink:href="#SVGID_73_"  overflow="visible"/>
		</clipPath>
		<path clip-path="url(#SVGID_74_)" d="M112.642,23.224c1.249,0.165,2.391,0.605,3.426,1.318c0.855,0.587,1.6,1.292,2.237,2.118
			c0.633,0.827,1.119,1.834,1.452,3.024c0.405,1.438,0.439,2.952,0.104,4.546c-0.334,1.592-1.258,2.91-2.766,3.954
			c1.553,0.169,2.766,0.689,3.639,1.558c0.872,0.87,1.605,2.366,2.201,4.486l0.571,2.033c0.389,1.383,0.707,2.305,0.956,2.766
			c0.386,0.732,0.938,1.199,1.653,1.397l0.213,0.759l-6.98,1.96c-0.378-0.616-0.669-1.12-0.867-1.506
			c-0.401-0.802-0.734-1.647-0.998-2.532l-0.83-2.801c-0.568-1.923-1.264-3.114-2.086-3.578c-0.821-0.464-2.111-0.447-3.871,0.046
			l-6.176,1.734l3.332,11.867l-6.179,1.734L93.174,27.85l14.474-4.066C109.727,23.243,111.393,23.058,112.642,23.224 M100.83,31.369
			l2.284,8.128l6.805-1.911c1.349-0.379,2.319-0.829,2.9-1.346c1.036-0.911,1.315-2.215,0.838-3.912
			c-0.515-1.833-1.438-2.903-2.773-3.207c-0.749-0.174-1.775-0.079-3.074,0.287L100.83,31.369z"/>
	</g>
	<g>
		<defs>
			<rect id="SVGID_75_" y="0" width="329.641" height="332.475"/>
		</defs>
		<clipPath id="SVGID_76_">
			<use xlink:href="#SVGID_75_"  overflow="visible"/>
		</clipPath>
		<path clip-path="url(#SVGID_76_)" d="M136.735,18.319l7.401-0.696l14.014,30.25l-7.09,0.667l-2.669-6.239l-11.524,1.085
			l-1.517,6.632l-6.839,0.645L136.735,18.319z M138.137,37.826l8.014-0.753l-5.11-11.94L138.137,37.826z"/>
	</g>
	<g>
		<defs>
			<rect id="SVGID_77_" y="0" width="329.641" height="332.475"/>
		</defs>
		<clipPath id="SVGID_78_">
			<use xlink:href="#SVGID_77_"  overflow="visible"/>
		</clipPath>
		<path clip-path="url(#SVGID_78_)" d="M181.843,18.993c2.136,0.906,3.805,2.381,5.001,4.42c0.965,1.652,1.567,3.397,1.809,5.245
			c0.249,1.847,0.3,3.592,0.162,5.234c-0.35,4.164-1.482,7.623-3.396,10.372c-2.596,3.706-6.26,5.359-10.998,4.961l-13.501-1.131
			l2.627-31.32l13.504,1.132C178.992,18.098,180.587,18.46,181.843,18.993 M169.444,22.746l-1.714,20.441l6.044,0.508
			c3.092,0.257,5.375-1.084,6.854-4.028c0.808-1.613,1.308-3.577,1.502-5.886c0.264-3.186-0.031-5.677-0.887-7.466
			c-0.857-1.791-2.776-2.812-5.755-3.062L169.444,22.746z"/>
	</g>
	<g>
		<defs>
			
				<rect id="SVGID_79_" x="-26.033" y="-9.481" transform="matrix(-0.9784 -0.2065 0.2065 -0.9784 242.1985 338.778)" width="329.626" height="332.46"/>
		</defs>
		<clipPath id="SVGID_80_">
			<use xlink:href="#SVGID_79_"  overflow="visible"/>
		</clipPath>
		
			<rect x="193.939" y="21.066" transform="matrix(-0.9784 -0.2065 0.2065 -0.9784 382.5558 113.4912)" clip-path="url(#SVGID_80_)" width="6.524" height="31.428"/>
	</g>
	<g>
		<defs>
			<rect id="SVGID_81_" y="0" width="329.641" height="332.475"/>
		</defs>
		<clipPath id="SVGID_82_">
			<use xlink:href="#SVGID_81_"  overflow="visible"/>
		</clipPath>
		<path clip-path="url(#SVGID_82_)" d="M226.02,58.991c-3.054,1.515-6.694,1.524-10.932,0.027c-4.235-1.499-7.065-3.795-8.487-6.892
			c-2.005-3.889-2.062-8.495-0.183-13.814c1.919-5.429,4.862-8.972,8.824-10.631c3.056-1.514,6.697-1.521,10.933-0.024
			c4.235,1.497,7.064,3.794,8.486,6.89c2.028,3.776,2.083,8.379,0.166,13.808C232.944,53.675,230.01,57.221,226.02,58.991
			 M223.744,53.12c2.078-1.299,3.711-3.617,4.891-6.955c1.174-3.324,1.359-6.148,0.563-8.473c-0.799-2.326-2.428-3.922-4.88-4.789
			c-2.449-0.867-4.728-0.655-6.827,0.639c-2.099,1.292-3.742,3.608-4.921,6.945c-1.183,3.337-1.358,6.168-0.538,8.493
			c0.822,2.326,2.459,3.923,4.909,4.79C219.394,54.637,221.661,54.421,223.744,53.12"/>
	</g>
	<g>
		<defs>
			<rect id="SVGID_83_" y="0" width="329.641" height="332.475"/>
		</defs>
		<clipPath id="SVGID_84_">
			<use xlink:href="#SVGID_83_"  overflow="visible"/>
		</clipPath>
		<polygon clip-path="url(#SVGID_84_)" fill="#00AEEF" points="90.756,204.045 104.397,225.972 104.489,225.972 104.489,204.045 
			111.218,204.045 111.218,236.727 104.032,236.727 90.435,214.848 90.345,214.848 90.345,236.727 83.615,236.727 83.615,204.045 		
			"/>
	</g>
	<g>
		<defs>
			<rect id="SVGID_85_" y="0" width="329.641" height="332.475"/>
		</defs>
		<clipPath id="SVGID_86_">
			<use xlink:href="#SVGID_85_"  overflow="visible"/>
		</clipPath>
		<path clip-path="url(#SVGID_86_)" fill="#00AEEF" d="M133.831,204.045l12.222,32.681h-7.46l-2.473-7.274h-12.222l-2.564,7.274
			h-7.232l12.359-32.681H133.831z M134.244,224.094l-4.119-11.993h-0.093l-4.256,11.993H134.244z"/>
	</g>
	<g>
		<defs>
			<rect id="SVGID_87_" y="0" width="329.641" height="332.475"/>
		</defs>
		<clipPath id="SVGID_88_">
			<use xlink:href="#SVGID_87_"  overflow="visible"/>
		</clipPath>
		<path clip-path="url(#SVGID_88_)" fill="#00AEEF" d="M163.632,204.045c2.042,0,3.783,0.297,5.219,0.892
			c1.434,0.596,2.601,1.381,3.502,2.357c0.899,0.978,1.555,2.092,1.968,3.342c0.413,1.25,0.618,2.55,0.618,3.892
			c0,1.312-0.205,2.601-0.618,3.867c-0.413,1.269-1.068,2.388-1.968,3.365c-0.901,0.979-2.068,1.764-3.502,2.358
			c-1.437,0.595-3.177,0.892-5.219,0.892h-7.554v11.717h-7.186v-32.682L163.632,204.045L163.632,204.045z M161.664,219.425
			c0.824,0,1.616-0.06,2.379-0.184c0.764-0.121,1.436-0.357,2.016-0.709c0.58-0.351,1.043-0.847,1.396-1.488
			c0.348-0.642,0.526-1.479,0.526-2.517c0-1.036-0.179-1.878-0.526-2.52c-0.354-0.639-0.816-1.134-1.396-1.486
			c-0.58-0.35-1.251-0.587-2.016-0.709c-0.763-0.122-1.555-0.184-2.379-0.184h-5.586v9.796h5.586V219.425z"/>
	</g>
	<g>
		<defs>
			<rect id="SVGID_89_" y="0" width="329.641" height="332.475"/>
		</defs>
		<clipPath id="SVGID_90_">
			<use xlink:href="#SVGID_89_"  overflow="visible"/>
		</clipPath>
		<path clip-path="url(#SVGID_90_)" fill="#00AEEF" d="M179.104,213.725c0.732-2.087,1.785-3.913,3.159-5.47
			c1.375-1.556,3.059-2.776,5.058-3.661s4.248-1.328,6.751-1.328c2.534,0,4.791,0.443,6.776,1.328
			c1.984,0.885,3.663,2.105,5.035,3.661c1.374,1.557,2.426,3.383,3.159,5.47c0.73,2.093,1.098,4.357,1.098,6.798
			c0,2.379-0.367,4.602-1.098,6.662c-0.733,2.059-1.785,3.854-3.159,5.378c-1.372,1.527-3.051,2.724-5.035,3.595
			c-1.985,0.869-4.242,1.304-6.776,1.304c-2.503,0-4.752-0.435-6.751-1.304c-1.999-0.871-3.683-2.067-5.058-3.595
			c-1.374-1.524-2.427-3.319-3.159-5.378c-0.731-2.06-1.098-4.283-1.098-6.662C178.006,218.082,178.372,215.818,179.104,213.725
			 M185.672,224.528c0.321,1.299,0.832,2.467,1.534,3.503c0.699,1.039,1.617,1.871,2.745,2.495c1.131,0.626,2.502,0.939,4.12,0.939
			c1.616,0,2.992-0.313,4.121-0.939c1.13-0.624,2.046-1.456,2.745-2.495c0.703-1.036,1.213-2.204,1.536-3.503
			c0.32-1.295,0.481-2.63,0.481-4.005c0-1.432-0.161-2.822-0.481-4.164c-0.323-1.343-0.833-2.541-1.536-3.595
			c-0.699-1.052-1.615-1.89-2.745-2.517c-1.129-0.625-2.505-0.938-4.121-0.938c-1.618,0-2.989,0.313-4.12,0.938
			c-1.128,0.627-2.046,1.465-2.745,2.517c-0.702,1.054-1.213,2.252-1.534,3.595c-0.319,1.342-0.479,2.732-0.479,4.164
			C185.192,221.898,185.352,223.233,185.672,224.528"/>
	</g>
	<g>
		<defs>
			<rect id="SVGID_91_" y="0" width="329.641" height="332.475"/>
		</defs>
		<clipPath id="SVGID_92_">
			<use xlink:href="#SVGID_91_"  overflow="visible"/>
		</clipPath>
		<polygon clip-path="url(#SVGID_92_)" fill="#00AEEF" points="222.224,204.045 222.224,230.687 238.154,230.687 238.154,236.727 
			215.038,236.727 215.038,204.045 		"/>
	</g>
	<g>
		<defs>
			<rect id="SVGID_93_" y="0" width="329.641" height="332.475"/>
		</defs>
		<clipPath id="SVGID_94_">
			<use xlink:href="#SVGID_93_"  overflow="visible"/>
		</clipPath>
		<rect x="242.183" y="204.045" clip-path="url(#SVGID_94_)" fill="#00AEEF" width="7.188" height="32.681"/>
	</g>
</g>
</svg>
